<?xml version="1.0" standalone="no"?><!DOCTYPE svg PUBLIC "-//W3C//DTD SVG 1.1//EN" "http://www.w3.org/Graphics/SVG/1.1/DTD/svg11.dtd"><svg t="1582477899999" class="icon" viewBox="0 0 1092 1024" version="1.1" xmlns="http://www.w3.org/2000/svg" p-id="34765" width="136.5" height="128" xmlns:xlink="http://www.w3.org/1999/xlink"><defs><style type="text/css"></style></defs><path d="M564.016944 0.004096C855.309645 0.004096 1092.262298 229.652244 1092.262298 512.002048S855.309645 1024 564.016944 1024C321.329915 1024 110.591558 864.939303 51.541127 637.134347a41.779033 41.779033 0 0 1 31.402541-50.790196 43.34916 43.34916 0 0 1 52.360324 30.446811c49.424869 190.463238 225.688697 323.582706 428.712952 323.582706 243.711025 0 441.888366-192.169898 441.888366-428.37162 0-236.201722-198.245607-428.303353-441.888366-428.303353a447.417944 447.417944 0 0 0-305.355579 118.646992 430.760944 430.760944 0 0 0-76.799692 94.480688l115.506738-27.920955a41.505967 41.505967 0 0 1 50.175799 29.218017 40.140639 40.140639 0 0 1-30.10548 48.673938l-212.991148 51.336328a41.369435 41.369435 0 0 1-50.175799-29.218016L1.228795 162.546379a40.004107 40.004107 0 0 1 30.173746-48.605672 41.505967 41.505967 0 0 1 50.175799 29.218016l27.784423 108.270501a514.250743 514.250743 0 0 1 89.565508-109.567562A535.208526 535.208526 0 0 1 564.016944 0.004096zM341.331968 512.002048C341.331968 380.247908 448.510206 273.06967 580.264346 273.06967S819.196723 380.247908 819.196723 512.002048 712.018485 750.934426 580.264346 750.934426 341.331968 643.756188 341.331968 512.002048zM580.264346 341.336064A170.870783 170.870783 0 0 0 409.598362 512.002048C409.598362 606.209671 486.124989 682.668032 580.264346 682.668032 674.335436 682.668032 750.93033 606.141405 750.93033 512.002048 750.93033 417.999224 674.335436 341.336064 580.264346 341.336064z" p-id="34766"></path></svg>