<?xml version="1.0" standalone="no"?><!DOCTYPE svg PUBLIC "-//W3C//DTD SVG 1.1//EN" "http://www.w3.org/Graphics/SVG/1.1/DTD/svg11.dtd"><svg t="1582472230271" class="icon" viewBox="0 0 1024 1024" version="1.1" xmlns="http://www.w3.org/2000/svg" p-id="11709" width="128" height="128" xmlns:xlink="http://www.w3.org/1999/xlink"><defs><style type="text/css"></style></defs><path d="M950.857143 153.6v716.8H73.142857V153.6h877.714286m0-73.142857H73.142857C32.914286 80.457143 0 113.371429 0 153.6v716.8c0 40.228571 32.914286 73.142857 73.142857 73.142857h877.714286c40.228571 0 73.142857-32.914286 73.142857-73.142857V153.6c0-40.228571-32.914286-73.142857-73.142857-73.142857z" fill="" p-id="11710"></path><path d="M965.485714 124.342857H58.514286v146.285714h906.971428V124.342857zM475.428571 592.457143h270.628572v73.142857H475.428571zM181.994057 390.977829l51.719314-51.719315 191.363658 191.363657-51.712 51.712z" fill="" p-id="11711"></path><path d="M181.994057 669.5936l191.363657-191.363657 51.719315 51.712-191.363658 191.370971z" fill="" p-id="11712"></path></svg>