<?xml version="1.0" standalone="no"?><!DOCTYPE svg PUBLIC "-//W3C//DTD SVG 1.1//EN" "http://www.w3.org/Graphics/SVG/1.1/DTD/svg11.dtd"><svg t="1582366025639" class="icon" viewBox="0 0 1031 1024" version="1.1" xmlns="http://www.w3.org/2000/svg" p-id="3926" xmlns:xlink="http://www.w3.org/1999/xlink" width="201.3671875" height="200"><defs><style type="text/css"></style></defs><path d="M868.987586 674.074483h-35.310345a27.895172 27.895172 0 0 0-27.895172 27.895172 28.601379 28.601379 0 0 0 27.895172 26.835862h35.310345a27.895172 27.895172 0 0 0 27.895173-27.895172v-1.765517a26.835862 26.835862 0 0 0-27.188966-24.364138zM913.831724 635.586207a3.531034 3.531034 0 0 0 0-5.649655l-21.53931-16.595862a3.884138 3.884138 0 0 0-5.649655 0 3.531034 3.531034 0 0 0 0 5.649655l22.245517 16.948965h2.118621a3.531034 3.531034 0 0 0 2.824827-0.353103z m16.948966-6.355862v-26.482759a3.531034 3.531034 0 0 0-3.884138-3.884138 3.531034 3.531034 0 0 0-3.884138 3.884138v26.129655a3.884138 3.884138 0 0 0 3.884138 3.884138 3.531034 3.531034 0 0 0 3.884138-4.237241z m-4.943449 30.72a24.717241 24.717241 0 0 0 6.355862-20.48s-2.471724-3.177931-4.237241-2.824828-3.177931 2.471724-2.824828 4.237242a16.595862 16.595862 0 0 1-4.590344 13.417931 38.135172 38.135172 0 0 1-35.310345 2.824827 39.194483 39.194483 0 0 0-37.428966 5.296552 25.423448 25.423448 0 0 0-4.590345 6.708965h8.474483v-1.765517a32.838621 32.838621 0 0 1 30.72-3.177931 45.903448 45.903448 0 0 0 43.431724-4.943448z m41.313104-45.903448a3.884138 3.884138 0 1 0-5.649655-5.649656l-20.833104 20.833104a4.237241 4.237241 0 0 0 0 6.002758 5.296552 5.296552 0 0 0 2.824828 0 6.708966 6.708966 0 0 0 2.824827 0z m13.064827 31.77931a3.531034 3.531034 0 0 0-3.884138-3.884138l-29.660689-1.765517a3.884138 3.884138 0 0 0-3.884138 3.884138 3.884138 3.884138 0 0 0 3.884138 4.237241h29.660689a3.531034 3.531034 0 0 0 3.884138-3.177931z" p-id="3927"></path><path d="M730.217931 820.25931a125.704828 125.704828 0 0 0 251.409655 0 122.173793 122.173793 0 0 0-81.566896-118.289655V706.206897a31.77931 31.77931 0 0 1-30.366897 29.660689h-35.310345a32.132414 32.132414 0 0 1-30.72-28.601379 124.998621 124.998621 0 0 0-73.445517 112.993103zM274.714483 251.762759A802.251034 802.251034 0 0 1 116.524138 185.026207 510.94069 510.94069 0 0 0 0 487.635862h244.347586a1075.2 1075.2 0 0 1 30.366897-235.873103zM726.333793 679.724138a1059.310345 1059.310345 0 0 0 12.711724-143.36h-199.503448v200.562759a842.151724 842.151724 0 0 1 153.246897 19.067586 215.04 215.04 0 0 1 33.544827-76.270345zM393.004138 10.946207a513.412414 513.412414 0 0 0-247.172414 141.241379 790.245517 790.245517 0 0 0 141.241379 57.908966 506.350345 506.350345 0 0 1 105.931035-199.150345zM710.444138 263.768276a826.968276 826.968276 0 0 1-170.902069 22.951724v200.915862h199.503448a1004.932414 1004.932414 0 0 0-28.601379-223.867586zM539.542069 0v241.875862a782.830345 782.830345 0 0 0 158.543448-21.186207C659.597241 98.515862 600.275862 18.714483 539.542069 0zM784.242759 487.635862h247.172413a513.05931 513.05931 0 0 0-116.524138-302.609655 847.448276 847.448276 0 0 1-159.602758 67.089655 1074.846897 1074.846897 0 0 1 28.954483 235.52zM882.758621 150.775172a516.237241 516.237241 0 0 0-247.172414-141.241379 498.935172 498.935172 0 0 1 105.931034 198.444138 810.01931 810.01931 0 0 0 141.24138-57.202759zM784.242759 536.364138c0 31.073103-2.824828 61.086897-6.002759 90.394483a219.277241 219.277241 0 0 1 128.529655-41.666207 216.805517 216.805517 0 0 1 112.993104 31.77931 545.191724 545.191724 0 0 0 10.24-80.507586zM289.544828 487.635862h200.915862V286.72A837.208276 837.208276 0 0 1 317.793103 263.768276a1002.107586 1002.107586 0 0 0-28.248275 223.867586zM687.13931 804.722759v-3.531035a789.186207 789.186207 0 0 0-147.950344-19.42069V1024c55.084138-16.595862 110.521379-86.510345 149.362758-193.50069a194.913103 194.913103 0 0 1-1.412414-25.776551zM330.504828 220.336552a769.05931 769.05931 0 0 0 159.955862 21.53931V0c-60.027586 17.302069-121.114483 97.456552-159.955862 220.336552zM709.031724 900.06069A412.071724 412.071724 0 0 1 635.586207 1013.406897a497.522759 497.522759 0 0 0 123.586207-47.315863 221.748966 221.748966 0 0 1-50.14069-66.030344zM317.793103 760.231724a837.208276 837.208276 0 0 1 172.314483-23.304827v-200.562759H289.544828a1004.932414 1004.932414 0 0 0 28.248275 223.867586zM147.244138 873.224828a516.237241 516.237241 0 0 0 247.172414 141.241379 506.350345 506.350345 0 0 1-105.931035-197.737931 793.776552 793.776552 0 0 0-141.241379 56.496552zM244.347586 536.364138H0a510.94069 510.94069 0 0 0 116.524138 302.609655 830.146207 830.146207 0 0 1 158.190345-66.736552 1075.2 1075.2 0 0 1-30.366897-235.873103zM490.46069 1024v-242.228966a793.423448 793.423448 0 0 0-159.955862 21.539311c38.841379 123.233103 99.575172 203.387586 159.955862 220.689655z" p-id="3928"></path></svg>