<?xml version="1.0" standalone="no"?><!DOCTYPE svg PUBLIC "-//W3C//DTD SVG 1.1//EN" "http://www.w3.org/Graphics/SVG/1.1/DTD/svg11.dtd"><svg t="1582476939570" class="icon" viewBox="0 0 1024 1024" version="1.1" xmlns="http://www.w3.org/2000/svg" p-id="22618" width="128" height="128" xmlns:xlink="http://www.w3.org/1999/xlink"><defs><style type="text/css"></style></defs><path d="M510.490112 64.301492c105.696274 0 201.38359 43.452651 270.725888 112.38972 69.38016 68.936045 111.985514 164.622338 111.985514 270.742261 0 94.016257-34.043351 180.919513-90.447988 247.345388-24.445762 28.834722-70.824045-7.93267-44.915979-38.438451 45.113477-53.055356 72.269977-120.745015 76.027557-191.353143L722.317565 464.987267c-1.266853 48.466851-7.952112 94.006024-18.593474 136.201032-6.882757 26.741038-40.940434 16.712637-35.105542-5.845125 10.658757-39.694047 16.929578-83.9766 18.175965-130.355907-145.190777 0-207.635991 0-353.041662 0 1.661849 46.379307 7.930623 90.661859 18.392906 130.355907 6.251378 23.813359-28.836769 30.916127-35.519981 3.758604-10.443863-40.940434-16.731056-86.487793-17.96107-134.11451L186.900226 464.987267c3.957125 73.119321 31.942503 139.126664 76.244498 191.353143 25.910113 30.506804-20.88568 67.273173-45.13292 38.020942C161.60512 627.928313 127.76336 541.448706 127.76336 447.432449c0-106.119923 42.621726-201.805192 111.965048-270.742261C309.108568 107.754143 404.775418 64.301492 510.490112 64.301492L510.490112 64.301492zM393.967258 693.667549 393.967258 693.667549 393.967258 538.717502c0-16.712637 13.171997-29.241998 29.649274-29.241998l0.649799 0 174.014242 0c16.296151 0 29.467125 12.529361 29.467125 29.241998l0 0.841158 0 154.109913 88.566128 0c16.297175 0 29.233811 12.951987 29.233811 29.248138 0 8.358365-2.927679 15.456017-8.347109 20.887726L531.627525 949.365162c-11.69025 11.69946-30.066783 11.69946-41.774429 0l-0.414439-0.830925L284.281113 743.804437c-11.275811-11.700483-11.275811-30.082132 0-41.780569 5.853311-5.429663 13.585413-8.355295 20.904099-8.355295l0.830925 0L393.967258 693.668573 393.967258 693.667549zM452.886159 569.802474 452.886159 569.802474l0 152.273079 0 0.840134c0 16.290011-13.171997 29.241998-29.269627 29.241998l-47.406706 0 134.528949 134.956691 134.535089-134.956691-46.361911 0-0.63138 0c-16.496719 0-29.469172-12.951987-29.469172-29.241998L568.811402 569.802474 452.886159 569.802474 452.886159 569.802474zM739.444641 218.056318 739.444641 218.056318c-2.494821-2.511193-5.022387-5.013177-7.93267-7.525394-14.217816 10.45205-29.249161 20.054755-45.113477 28.411073 21.084201 54.735625 34.256198 120.338762 35.920094 190.531428L833.865103 429.473425C829.691037 347.582323 794.188452 273.208429 739.444641 218.056318L739.444641 218.056318zM703.52557 187.558723 703.52557 187.558723c-20.487613-15.041578-42.205241-28.412097-66.018599-38.438451 9.178033 12.529361 17.959024 25.483394 25.691125 39.684838 3.539616 5.854335 6.467295 11.69946 9.178033 17.969257C683.036933 200.503547 693.479773 194.245006 703.52557 187.558723L703.52557 187.558723zM563.972187 127.808898 563.972187 127.808898c-11.92561-2.086521-23.813359-3.342118-35.93749-4.181229l0 124.512828c34.889625-2.087545 68.532863-9.197476 99.426477-20.47124 4.409426-2.094708 9.214872-3.76679 13.369495-5.437849-2.908236-5.429663-5.421476-11.274788-8.56405-16.288988C613.062232 170.846086 589.87923 143.680377 563.972187 127.808898L563.972187 127.808898zM492.728586 123.626645 492.728586 123.626645c-11.905144 0.840134-24.030299 2.095731-35.935444 4.181229-25.691125 15.872502-49.090045 43.037189-68.313875 78.133521-2.90926 5.0142-5.837962 10.859325-8.365528 16.288988 4.605901 1.671059 8.779967 3.343141 13.368472 5.437849 30.9325 11.273764 64.141856 18.383696 99.245352 20.47124L492.727563 123.626645 492.728586 123.626645zM383.040395 149.120272 383.040395 149.120272c-23.379477 10.026354-45.530986 23.396873-65.801658 38.438451 10.04375 6.686283 20.270672 12.944823 31.128975 19.21462 2.927679-6.269797 6.269797-12.114922 9.197476-17.969257C365.516276 174.603667 374.2768 161.649634 383.040395 149.120272L383.040395 149.120272zM289.449833 210.531947 289.449833 210.531947c-2.925632 2.511193-5.420453 5.013177-8.129144 7.525394-54.744835 55.152111-90.049922 129.526005-94.421486 211.417107l111.76448 0c1.662873-70.192665 15.032368-135.795802 35.919071-190.531428C318.71946 230.585679 303.669696 220.982974 289.449833 210.531947L289.449833 210.531947zM654.635069 254.409271 654.635069 254.409271c-5.022387 2.086521-10.028401 4.173043-14.634302 5.844102-35.087123 12.955056-72.901357 20.894889-111.966071 22.981411l0 146.238642 158.76084 0C685.132664 364.711446 673.426041 304.546158 654.635069 254.409271L654.635069 254.409271zM492.728586 283.234783 492.728586 283.234783c-39.080064-2.087545-76.659961-10.027377-111.765503-22.981411-5.006014-1.671059-9.81146-3.75758-14.832823-5.844102-18.790972 50.136887-30.2827 110.302175-32.377408 175.064155l158.975734 0L492.728586 283.234783 492.728586 283.234783z" p-id="22619"></path></svg>