<?xml version="1.0" standalone="no"?><!DOCTYPE svg PUBLIC "-//W3C//DTD SVG 1.1//EN" "http://www.w3.org/Graphics/SVG/1.1/DTD/svg11.dtd"><svg t="1583158141781" class="icon" viewBox="0 0 1024 1024" version="1.1" xmlns="http://www.w3.org/2000/svg" p-id="3976" width="32" height="32" xmlns:xlink="http://www.w3.org/1999/xlink"><defs><style type="text/css"></style></defs><path d="M864 851.2h-704c-19.2 0-32-12.8-32-32V268.8c0-19.2 12.8-32 32-32h697.6c19.2 0 32 12.8 32 32v550.4c6.4 19.2-6.4 32-25.6 32z" fill="#FFA000" p-id="3977"></path><path d="M512 377.6H128V204.8c0-19.2 12.8-32 32-32h262.4c12.8 0 25.6 12.8 32 25.6L512 377.6z" fill="#FFA000" p-id="3978"></path><path d="M806.4 812.8H217.6c-19.2 0-32-12.8-32-32V320c0-19.2 12.8-32 32-32h595.2c19.2 0 32 12.8 32 32v460.8c0 12.8-19.2 32-38.4 32z" fill="#FFFFFF" p-id="3979"></path><path d="M864 851.2h-704c-19.2 0-32-12.8-32-32V384c0-19.2 12.8-32 32-32h697.6c25.6-6.4 38.4 12.8 38.4 32v435.2c0 19.2-12.8 32-32 32z" fill="#FFCA28" p-id="3980"></path><path d="M403.2 486.4H217.6c-6.4 0-19.2-6.4-19.2-19.2s6.4-19.2 19.2-19.2h185.6c6.4 0 19.2 6.4 19.2 19.2s-12.8 19.2-19.2 19.2z m0 115.2H217.6c-6.4 0-19.2-6.4-19.2-19.2s6.4-19.2 19.2-19.2h185.6c6.4 0 19.2 6.4 19.2 19.2-6.4 12.8-12.8 19.2-19.2 19.2z" fill="#FFF8E1" p-id="3981"></path></svg>