<?xml version="1.0" standalone="no"?><!DOCTYPE svg PUBLIC "-//W3C//DTD SVG 1.1//EN" "http://www.w3.org/Graphics/SVG/1.1/DTD/svg11.dtd"><svg t="1583830987132" class="icon" viewBox="0 0 1024 1024" version="1.1" xmlns="http://www.w3.org/2000/svg" p-id="1505" width="128" height="128" xmlns:xlink="http://www.w3.org/1999/xlink"><defs><style type="text/css"></style></defs><path d="M420.352 900.608H165.888c-22.528 0-40.96-18.432-40.96-40.96V164.352c0-22.528 18.432-40.96 40.96-40.96h541.184c22.528 0 40.96 18.432 40.96 40.96v165.376c39.424 1.024 76.8 7.68 112.64 19.968V164.352c0-84.992-68.608-153.6-153.6-153.6H165.888c-84.992 0-153.6 68.608-153.6 153.6v695.296c0 84.992 68.608 153.6 153.6 153.6h361.984c-43.52-29.696-79.36-67.584-107.52-112.64z" p-id="1506"></path><path d="M243.712 334.848h383.488c31.232 0 56.32-25.088 56.32-56.32s-25.088-56.32-56.32-56.32H243.712c-31.232 0-56.32 25.088-56.32 56.32s25.088 56.32 56.32 56.32zM468.992 443.392h-225.28c-31.232 0-56.32 25.088-56.32 56.32s25.088 56.32 56.32 56.32H394.24c6.144-13.824 12.8-27.136 20.48-40.448 15.36-26.624 33.792-50.688 54.272-72.192zM366.08 664.576H243.712c-31.232 0-56.32 25.088-56.32 56.32s25.088 56.32 56.32 56.32h127.488c-4.608-24.064-7.168-48.64-7.168-73.728 0-13.312 1.024-26.112 2.048-38.912zM730.624 892.928c-31.744-1.024-60.928-9.728-87.552-25.088-29.184-16.896-52.224-39.936-69.12-69.12-4.096-7.168-7.68-14.336-10.752-21.504H464.384c6.144 23.552 15.872 46.592 28.672 68.096 11.776 20.48 25.6 38.4 41.472 54.784h172.544c8.704 0.512 16.896-2.56 23.552-7.168zM902.656 608.256c16.896 29.184 25.6 60.928 25.6 95.232 0 34.304-8.704 66.048-25.6 95.232-11.264 19.456-25.088 35.84-41.472 49.664v11.264c0 48.128-22.528 91.648-57.344 119.808 26.624-6.144 52.224-16.384 76.8-30.72 43.52-25.088 77.824-59.392 102.912-102.912 25.088-43.52 37.888-90.624 37.888-141.824s-12.8-98.816-37.888-141.824c-25.088-43.52-59.392-77.824-102.912-102.912-6.144-3.584-12.8-7.168-19.456-10.24v110.592c16.384 12.8 30.208 29.184 41.472 48.64zM626.176 443.392h1.536c31.232 0 56.32 25.088 56.32 56.32 0 8.192-2.048 16.384-5.12 23.552 18.944-6.144 38.912-9.216 59.392-9.216 3.584 0 6.656 0 10.24 0.512V420.352h-10.24c-39.936 0-77.312 7.68-112.128 23.04zM493.056 561.152c-18.944 32.256-30.72 66.56-35.328 103.424h94.72c4.096-19.968 11.264-38.4 21.504-56.32 11.776-20.48 27.136-37.888 44.544-52.224H496.64c-1.024 1.536-2.56 3.584-3.584 5.12z" p-id="1507"></path><path d="M860.672 859.648v-11.264c-8.704 7.168-17.408 13.824-27.648 19.456-29.184 16.896-60.928 25.6-95.232 25.6h-7.68c-6.656 4.608-14.848 7.68-23.552 7.68h-172.544c17.92 18.432 38.4 34.816 61.44 48.128 43.52 25.088 90.624 37.888 141.824 37.888 22.528 0 44.544-2.56 65.536-7.168 35.84-29.184 57.856-72.192 57.856-120.32zM748.032 514.048c30.72 1.536 58.88 9.728 84.992 25.088 9.728 5.632 18.944 12.288 27.648 19.456V448c-35.328-16.896-72.704-26.112-112.64-27.648v93.696zM496.64 556.032h121.856c7.68-6.144 15.872-11.776 24.064-16.896 11.264-6.656 23.552-11.776 35.84-15.872 3.072-7.168 5.12-14.848 5.12-23.552 0-31.232-25.088-56.32-56.32-56.32h-1.536c-10.24 4.608-19.968 9.216-29.696 15.36-41.472 24.064-74.24 56.32-99.328 97.28zM552.448 664.576H457.728c-1.536 12.8-2.56 25.6-2.56 38.912 0 25.6 3.072 50.176 9.216 73.728H563.2c-9.728-23.04-14.848-47.616-14.848-73.728 0-13.312 1.536-26.624 4.096-38.912zM716.8 678.4h31.232v-100.352c-7.68-9.216-18.944-14.848-31.232-14.848-22.528 0-40.96 18.432-40.96 40.96v88.064c1.536 3.072 3.072 5.632 4.096 9.216 6.656-13.824 20.48-23.04 36.864-23.04zM757.76 678.4V604.16c0-10.24-3.584-18.944-9.728-26.112v100.352h9.728z" p-id="1508"></path><path d="M679.936 701.44c-1.024-3.072-2.56-6.144-4.096-9.216v27.136c0-6.656 1.536-12.8 4.096-17.92zM716.8 760.32h31.232v-14.848c-7.168 9.216-18.432 14.848-31.232 14.848zM879.616 719.36c0-14.336-7.68-27.136-18.944-34.304v69.12c11.776-7.68 18.944-20.48 18.944-34.816zM748.032 745.472v14.848h90.624c8.192 0 15.872-2.56 22.016-6.656v-69.12c-6.144-4.096-13.824-6.656-22.016-6.656H757.76v40.96c0 10.752-3.584 19.456-9.728 26.624z" p-id="1509"></path><path d="M748.032 745.472v-67.072H716.8c-15.872 0-30.208 9.216-36.864 23.04 2.048 6.144 3.584 12.8 3.584 19.456 0 6.144-1.024 12.288-3.072 17.92 7.168 12.8 20.48 21.504 35.84 21.504 13.312 0 24.576-5.632 31.744-14.848zM748.032 745.472c6.144-7.168 9.728-16.384 9.728-26.112v-40.96h-9.728v67.072z" p-id="1510"></path><path d="M679.936 701.44c-2.56 5.632-4.096 11.776-4.096 17.92 0 7.168 1.536 13.824 5.12 19.456 2.048-5.632 3.072-11.776 3.072-17.92-0.512-7.168-1.536-13.312-4.096-19.456z" p-id="1511"></path></svg>