<?xml version="1.0" standalone="no"?><!DOCTYPE svg PUBLIC "-//W3C//DTD SVG 1.1//EN" "http://www.w3.org/Graphics/SVG/1.1/DTD/svg11.dtd"><svg t="1582475528582" class="icon" viewBox="0 0 1024 1024" version="1.1" xmlns="http://www.w3.org/2000/svg" p-id="5362" width="128" height="128" xmlns:xlink="http://www.w3.org/1999/xlink"><defs><style type="text/css"></style></defs><path d="M972.8 838.4h-32V153.6c0-19.2-12.8-32-32-32H153.6V32c0-19.2-12.8-32-32-32s-32 12.8-32 32v83.2H51.2c-19.2 0-32 12.8-32 32s12.8 32 32 32h32v684.8c0 19.2 12.8 32 32 32h748.8v83.2c0 19.2 12.8 32 32 32s32-12.8 32-32V896h32c19.2 0 32-12.8 32-32 19.2-12.8 0-25.6-19.2-25.6z m-819.2 0V185.6h716.8V832H153.6z" p-id="5363"></path><path d="M275.2 358.4c0 38.4 32 70.4 70.4 70.4s70.4-32 70.4-70.4-38.4-70.4-70.4-70.4-70.4 32-70.4 70.4z m544 364.8l-102.4-268.8c0-6.4-6.4-12.8-12.8-12.8s-12.8 0-19.2 6.4L569.6 627.2c-6.4 6.4-12.8 12.8-25.6 6.4l-192-96c-6.4-6.4-19.2 0-25.6 6.4l-115.2 179.2c-6.4 6.4-6.4 12.8 0 19.2s6.4 6.4 19.2 6.4h576c6.4 0 12.8 0 12.8-6.4v-19.2z" p-id="5364"></path></svg>