<?xml version="1.0" standalone="no"?><!DOCTYPE svg PUBLIC "-//W3C//DTD SVG 1.1//EN" "http://www.w3.org/Graphics/SVG/1.1/DTD/svg11.dtd"><svg t="1582477474215" class="icon" viewBox="0 0 1365 1024" version="1.1" xmlns="http://www.w3.org/2000/svg" p-id="28079" width="170.625" height="128" xmlns:xlink="http://www.w3.org/1999/xlink"><defs><style type="text/css"></style></defs><path d="M710.827 222.55a737.28 737.28 0 0 1 507.989 202.922c10.325 10.07 26.88 9.984 37.035-0.256l98.645-99.584a27.477 27.477 0 0 0-0.256-38.912 929.877 929.877 0 0 0-1286.827 0 27.477 27.477 0 0 0-0.256 38.912l98.646 99.584c10.24 10.24 26.709 10.325 37.034 0.256a737.365 737.365 0 0 1 507.99-202.923z m0 323.925c103.936 0 204.117 38.57 281.088 108.373a26.453 26.453 0 0 0 37.034-0.512l98.475-99.67a27.477 27.477 0 0 0-0.341-39.167 610.987 610.987 0 0 0-832.256 0 27.477 27.477 0 0 0-0.342 39.168l98.475 99.584a26.453 26.453 0 0 0 37.035 0.426 418.73 418.73 0 0 1 280.832-108.373z m189.44 237.568a26.795 26.795 0 0 0-0.854-38.998 292.01 292.01 0 0 0-377.173 0 26.795 26.795 0 0 0-0.768 38.998l170.496 172.032a26.624 26.624 0 0 0 37.803 0l170.41-172.032z" p-id="28080"></path></svg>